<svg xmlns="http://www.w3.org/2000/svg" width="512" height="512"><g fill="#fff"><path d="M504.5 0H271a7.5 7.5 0 0 0-7.5 7.5V241a7.5 7.5 0 0 0 7.5 7.5h233.5a7.5 7.5 0 0 0 7.5-7.5V7.5a7.5 7.5 0 0 0-7.5-7.5zM365.25 15h45v67.115l-19.146-9.573a7.498 7.498 0 0 0-6.708 0l-19.146 9.573zM497 233.5H278.5V15h71.75v79.25a7.501 7.501 0 0 0 10.854 6.708l26.646-13.323 26.646 13.323a7.502 7.502 0 0 0 7.297-.328 7.501 7.501 0 0 0 3.557-6.38V15H497zM241 0H7.5A7.5 7.5 0 0 0 0 7.5V241a7.5 7.5 0 0 0 7.5 7.5H241a7.5 7.5 0 0 0 7.5-7.5V7.5A7.5 7.5 0 0 0 241 0zM101.75 15h45v67.115l-19.146-9.573a7.498 7.498 0 0 0-6.708 0l-19.146 9.573zM233.5 233.5H15V15h71.75v79.25a7.501 7.501 0 0 0 10.854 6.708l26.646-13.323 26.646 13.323a7.502 7.502 0 0 0 7.297-.328 7.501 7.501 0 0 0 3.557-6.38V15h71.75zM504.5 263.5H271a7.5 7.5 0 0 0-7.5 7.5v233.5a7.5 7.5 0 0 0 7.5 7.5h233.5a7.5 7.5 0 0 0 7.5-7.5V271a7.5 7.5 0 0 0-7.5-7.5zm-139.25 15h45v67.115l-19.146-9.573a7.498 7.498 0 0 0-6.708 0l-19.146 9.573zM497 497H278.5V278.5h71.75v79.25a7.501 7.501 0 0 0 10.854 6.708l26.646-13.323 26.646 13.323a7.502 7.502 0 0 0 7.297-.328 7.501 7.501 0 0 0 3.557-6.38V278.5H497zM241 263.5H94.25a7.5 7.5 0 0 0-7.5 7.5v86.75a7.501 7.501 0 0 0 10.854 6.708l26.646-13.323 26.646 13.323a7.501 7.501 0 0 0 10.854-6.708V278.5h71.75V497H15V278.5h49.25a7.5 7.5 0 0 0 0-15H7.5A7.5 7.5 0 0 0 0 271v233.5a7.5 7.5 0 0 0 7.5 7.5H241a7.5 7.5 0 0 0 7.5-7.5V271a7.5 7.5 0 0 0-7.5-7.5zm-94.25 82.115l-19.146-9.573a7.496 7.496 0 0 0-6.708 0l-19.146 9.573V278.5h45z"/></g></svg>